Patient4_TMGait_0pt4_03_right_34_EMG.mot
version=1
nRows=33
nColumns=33
inDegrees=no
endheader
time	1LAddLong	2LGlutMax	3LGlutMed	4LIliopsoas	5LSemiMemb	6LBicFemLong	7LRecFem	8LVastMed	9LVastLat	10LGasMed	11LTibAnt	12lTibPost	13LPeroneusLong	14LSol	15LExtDigLong	16LFlexDigLong	17RAddLong	18RGlutMax	19RGlutMed	20RIliopsoas	21RSemiMemb	22RBicFemLong	23RRecFem	24RVastMed	25RVastLat	26RGasMed	27RTibAnt	28RTibPost	29RPeroneusLong	30RSol	31RExtDigLong	32RFlexDigLong
44.737	-0.010071	0.034332	0.026245	-0.019226	0.011292	-0.00412	0.013428	0.008545	-0.11658	0.10666	0.023499	-0.003204	-0.081024	0.2153	-0.024567	-0.056763	-0.019379	-0.18433	1.0936	0.004272	-0.22186	-0.21011	0.20783	-0.001221	0.009766	-0.10056	0.059204	-0.012512	0.083466	0.15167	0.005341	-0.011139
44.738	-0.013428	0.019073	0.03067	-0.013123	0.008087	-0.028076	0.019531	-0.000763	-0.09552	0.093536	0.019684	-0.006256	-0.049896	0.22736	0.00824	-0.048828	-0.027466	-0.32577	0.78629	-0.021667	0.046844	-0.40604	0.27481	0.027924	0.041046	-0.12863	0.082703	-0.009003	0.2124	0.019379	0.001831	-0.00946
44.739	-0.027618	0.006409	0.024567	-0.016174	0.016937	-0.033875	0.040741	0.003052	-0.07843	0.11063	0.018616	0.007782	-0.051727	0.14877	0.063324	-0.046082	-0.033264	-0.37613	-0.20721	-0.003052	0.098267	-0.32669	0.28717	0.12756	0.032806	-0.12558	0.10117	-0.010834	0.19928	0.17044	0.002136	-0.005798
44.74	0.000458	-0.009155	0.017548	0.011597	0.013275	-0.037384	0.034637	0.008392	-0.077515	0.066071	0.011444	-0.007477	-0.06485	0.014191	0.006104	-0.050812	-0.090332	-0.30365	-0.12405	0.021667	0.047607	-0.035553	0.27603	0.15656	0.008545	0.05722	0.059509	-0.019989	0.033875	0.00061	0.000763	-0.010681
44.741	-0.022125	0.002899	0.01358	0.014343	0.014343	-0.045929	0.027924	0.00061	-0.08606	0.012207	-0.000305	-0.000916	-0.063019	0.097656	-0.028687	-0.04303	-0.10223	-0.20004	-0.25238	0.021515	0.19608	0.10284	0.2713	0.10834	-0.048218	0.18997	0.0383	-0.048981	0.012817	-0.29251	0.001221	-0.016174
44.742	-0.005646	-0.008392	0.010376	0.004272	0.007172	-0.036316	0.020447	0.012512	-0.068359	0.056915	0.001984	0.001221	-0.084229	0.16693	-0.031586	-0.038147	-0.035553	-0.25497	-0.9166	0.02655	0.12466	-0.075378	0.20508	0.025024	-0.13886	0.14862	-0.059814	-0.12955	0.64835	-0.11444	0.004425	-0.010529
44.743	-0.015411	-0.028839	0.015717	0.004578	0.008392	-0.082855	0.031891	0.010681	-0.054321	0.040894	-0.027466	-0.000458	-0.072174	0.18463	-0.018311	-0.017853	-0.001526	-0.52704	-0.92102	-0.020599	0.053253	-0.063782	0.13077	0.076599	-0.11627	0.1059	-0.057678	-0.027771	-0.4361	0.41061	0.001831	-0.000305
44.744	-0.024261	-0.03418	0.025635	0.02182	0.009155	-0.071564	0.045624	0.009308	-0.056763	0.040894	-0.028992	-0.002136	-0.080414	0.18677	-0.002441	-0.014954	-0.03418	-0.50873	-0.78339	-0.050964	-0.028534	0.11826	0.027313	0.053711	-0.050049	0.03006	0.16327	-0.1564	-1.1067	0.42206	0.001678	-0.005951
44.745	-0.019989	-0.072174	0.032349	0.009308	0.021515	-0.088196	0.050354	0.01236	-0.04776	0.074615	-0.013428	-0.003204	-0.064545	0.14694	0.003967	-0.01236	-0.046234	-0.44434	-0.87204	-0.02243	-0.16571	0.28595	-0.003357	0.084686	0.017548	-0.037079	0.17593	-0.015259	-0.54062	0.31647	0.000916	-0.012054
44.746	-0.014801	-0.058594	0.04425	0.013885	0.021973	-0.061646	0.039673	0.01297	-0.023346	0.081177	-0.003052	-0.002441	-0.082397	0.092773	0.003662	-0.010681	-0.02655	-0.42114	-0.50034	-0.085144	-0.14252	0.35416	-0.000305	0.025482	0.20767	-0.084534	0.007629	0.22751	1.7076	-0.18692	0.003815	-0.008698
44.747	-0.017395	-0.074615	0.052643	0.006714	0.018768	0.003204	0.022583	0.007629	-0.014191	0.06073	0.00412	-0.001678	-0.063782	0.087738	0.000763	-0.023193	-0.012665	-0.33875	0.71777	-0.11795	-0.09079	0.059052	-0.016632	-0.037537	0.48004	-0.13763	0.014343	0.06424	1.5239	-0.13107	0	-0.002899
44.748	-0.014191	-0.09964	0.050354	0.019073	0.014038	0.02121	0.00946	0.010071	0.014954	0.08606	0.013733	-0.005188	-0.083466	0.076599	-0.004578	0.040131	-0.019684	-0.33249	0.75378	-0.096741	0.16068	-0.22385	-0.056458	-0.024261	0.49835	-0.1622	-0.036926	0.037842	0.7045	-0.21988	-0.00061	-0.000458
44.749	-0.014191	-0.11353	0.048065	-0.005035	0.018311	-0.013885	-0.001678	0.011292	0.049896	0.066071	-0.005798	0.00061	-0.055237	0.099335	0.00351	-0.020447	0.009918	-0.35309	-0.16205	-0.041962	0.23102	-0.13031	-0.010223	-0.088348	0.31998	-0.11398	-0.062561	-0.090485	-0.25711	-0.77515	-0.001678	0.006409
44.75	-0.012817	-0.1181	0.059052	-0.004425	0.022888	-0.043182	-0.018158	0.015869	0.069275	-0.075073	-0.009308	0.00473	-0.052185	0.088043	-0.001526	-0.48721	0.028992	-0.30884	-0.71213	-0.040436	0.064087	-0.0177	0.007782	-0.19821	0.077515	-0.13199	0.10956	-0.44617	-0.64316	-0.40039	0	0.003967
44.751	-0.018616	-0.12375	0.043945	0.016479	0.023651	-0.048218	-0.013123	0.009155	0.093536	-0.079498	-0.027618	-0.002136	-0.046387	0.068817	-0.005035	0.25345	0.024109	-0.34637	-0.82016	0.006409	-0.21957	0.089264	0.046234	-0.30319	-0.12451	-0.019531	0.059357	0.17441	0.25925	0.04837	-0.001221	0.006104
44.752	-0.012817	-0.10025	0.052795	0.016937	0.009308	-0.054626	-0.010071	0.001831	0.089569	-0.006104	-0.005646	-0.005798	-0.041962	0.057983	0.002441	0.13534	0.03006	-0.34775	-0.68939	0.058899	-0.14877	0.16556	-0.14893	-0.18372	-0.24262	0.1506	-0.22263	0.27679	0.41885	-0.25146	0.000305	0.003815
44.753	-0.007782	-0.12863	0.050049	0.016632	0.022888	-0.072632	-0.00061	0.01709	0.093079	0.022583	0.017548	0.001221	-0.045624	0.070801	0.004578	-0.007629	0.024109	-0.53482	-1.2315	0.041351	0.039673	0.20325	-0.16556	0.48492	-0.4747	0.094757	-0.075684	-0.02533	-0.5339	-0.31357	0	0.00061
44.754	-0.014496	-0.12924	0.052032	0.004425	0.024261	-0.039215	0.018463	0.011139	0.084381	0.02594	0.016174	-0.01236	-0.048981	0.072021	0.016174	0.22858	0.058899	-0.4129	-1.0553	-0.061035	0.24384	0.15427	-0.11688	0.71152	-0.43762	0.048981	0.004272	0.027924	0.71808	0.27481	0.001526	-0.008087
44.755	-0.012054	-0.11383	0.042267	-0.015106	0.026855	-0.037842	0.036163	0.011902	0.11963	0.036163	-0.006104	0.005188	-0.045624	0.11658	0.031433	0.072937	0.032043	-0.32059	-1.2619	-0.080566	0.30655	0.17212	0.11429	0.43594	-0.41321	-0.045929	0.07309	0.14679	0.28595	0.39597	-0.001526	-0.004425
44.756	-0.007477	-0.10864	0.03952	-0.006256	0.025482	-0.029755	0.023499	0.013733	0.11856	0.002747	-0.041046	-0.003204	-0.044403	0.1268	0.028076	-0.001984	-0.014954	-0.26459	-1.2839	-0.084686	0.082092	0.41367	0.1712	0.06424	-0.088196	-0.040283	0.089569	0.000153	-0.39612	0.14801	-0.001373	-0.011902
44.757	-0.013428	-0.11551	0.037689	-0.004425	0.025177	-0.054474	0.050812	0.006409	0.11063	0.009155	-0.081177	0.001984	-0.056305	0.13428	0.016937	-0.024719	-0.062408	-0.15945	-1.2601	0.023651	-0.21652	0.44968	0.018158	-0.14694	0.37338	-0.010376	0.005798	-0.030212	-0.31296	0.11032	0.005188	-0.003052
44.758	-0.011139	-0.10727	0.049438	-0.001373	0.02182	-0.036316	0.063477	0.003204	0.11353	0.006561	-0.090332	-0.025482	-0.056458	0.12726	0.021362	-0.0354	-0.099792	-0.15457	-1.5552	0.093536	-0.38467	0.17807	-0.14389	-0.19608	0.29602	0.059357	-0.086823	0.0177	0.62256	0.041046	-0.001373	-0.001678
44.759	-0.001984	-0.07431	0.041351	0.011902	0.014954	-0.034332	0.075226	0.006409	0.10834	-0.011444	-0.084686	-0.00061	-0.030212	0.10193	0.061798	-0.03479	-0.031128	-0.098724	-1.687	0.068207	-0.16129	-0.28748	-0.17227	-0.31052	0.068054	0.007782	-0.037231	0.13718	0.40527	-0.068207	-0.001373	-0.00412
44.76	-0.010681	-0.089111	0.047913	0.034332	0.009613	-0.0383	0.072784	0.004425	0.10239	0.016174	-0.005035	0.021057	-0.005951	0.031891	0.11826	-0.037537	0.004272	-0.044403	0.19333	-0.038605	0.089264	-0.30975	-0.20813	-0.3772	-0.14252	0.092468	0.02594	0.091095	0.66681	-0.058594	0.001526	-0.006409
44.761	-0.01236	-0.050354	0.044708	0.014648	0.014801	-0.019989	0.086517	0.01236	0.10803	0.037231	0.11414	0.005951	-0.008545	0.053558	0.008087	-0.035706	0.023956	0.023804	0.39276	-0.097198	0.20096	0.063782	-0.37964	-0.33691	-0.22018	0.048828	0.085907	0.02182	-0.25345	-0.26169	-0.001221	-0.013123
44.762	-0.014648	-0.049591	0.023041	0.002899	0.019684	-0.021057	0.11307	0.006256	0.11627	0.050354	0.067902	-0.001373	-0.032654	0.11963	-0.052948	-0.039978	0.045013	-0.01297	-0.4512	-0.10483	0.15579	0.30258	-0.38666	-0.37903	-0.32928	0.03067	-0.077972	-0.11627	-1.9	-0.62118	0.001678	-0.011597
44.763	-0.008545	-0.031586	0.025635	0.002289	0.015106	-0.013123	0.09903	0.006561	0.12711	0.057526	0.023346	0.003204	-0.032959	0.18463	-0.053101	-0.025177	0.018768	-0.081635	0.080109	-0.11429	-0.20981	0.36697	-0.050354	-0.39291	-0.33493	0.061798	-0.078583	-0.37964	-0.22537	-0.50568	-0.000153	-0.001221
44.764	-0.006256	-0.03479	0.013275	0.005951	0.013428	-0.02594	0.11063	0.002289	0.14511	0.044861	0.04303	-0.004578	-0.066833	0.18051	-0.084686	-0.050354	-0.00061	-0.12405	0.96344	-0.12161	-0.21454	0.2739	0.24048	-0.37491	-0.065613	0.035248	-0.077209	0.12085	0.31189	-0.015259	0.000916	-0.007629
44.765	-0.005341	-0.027313	0.02121	0.008087	0.006561	-0.013733	0.083466	0.005493	0.14786	0.036163	0.040131	0.001984	-0.055847	0.13443	-0.15549	-0.029449	0.006104	-0.18768	0.46997	-0.007782	-0.043793	0.042572	0.19424	-0.19501	0.061646	0.025635	-0.044861	0.15732	0.22964	-0.092316	-0.004272	-0.001526
44.766	-0.001068	-0.029297	0.018463	0.009613	0.00473	-0.037842	0.10376	0.004883	0.1532	0.038605	0.025482	-0.005188	-0.075684	0.074921	-0.20355	-0.011749	-0.014648	-0.20706	-0.35385	0.088501	-0.28625	0.002899	0.10635	-0.1738	0.012207	0.012207	-0.026855	0.009918	0.075836	-0.18158	-0.00351	0.000458
44.767	-0.001373	0.00351	0.040894	0.024414	0.010529	-0.029144	0.11993	-0.003204	0.15427	0.028076	-0.014191	-0.006409	-0.064545	0.054321	-0.13962	-0.01358	-0.011597	-0.17288	-0.23239	0.13748	-0.30273	-0.14603	0.012054	-0.065918	0.033264	-0.000916	0.011139	0.00473	-0.18631	-0.034637	-0.002899	-0.010223
44.768	-0.004578	0.004578	0.060883	0.01297	0.013428	-0.027466	0.095367	0.005188	0.15564	0.03067	0.02594	0.00351	-0.062866	0.021515	-0.029449	-0.003052	-0.001678	-0.17654	-0.32364	0.20706	-0.019684	-0.31525	-0.081024	0.24506	0.14236	0.002136	-0.062714	-0.031586	1.0487	0.57892	-0.000763	-0.017853
44.769	-0.012207	0.007782	0.066986	-0.011749	0.006714	-0.030212	0.059052	0.007019	0.17685	0.02243	0.05127	-0.00061	-0.064087	0.004272	0.038757	-0.000916	-0.012665	-0.13046	-0.40634	0.13855	0.37262	-0.48645	-0.057373	0.39307	0.13565	0.031891	-0.03067	-0.02655	0.58304	0.28397	0.000916	-0.028381
